<?xml version="1.0" encoding="UTF-8"?>
<svg id="Layer_1" data-name="Layer 1" xmlns="http://www.w3.org/2000/svg" viewBox="0 0 449.09 604.39">
  <defs>
    <style>
      .cls-1, .cls-2 {
        fill: #fff;
      }

      .cls-3 {
        letter-spacing: 0em;
      }

      .cls-4 {
        letter-spacing: -.09em;
      }

      .cls-5 {
        letter-spacing: -.04em;
      }

      .cls-6 {
        letter-spacing: -.09em;
      }

      .cls-2 {
        font-family: Inter-Bold, Inter;
        font-size: 47.15px;
        font-weight: 700;
      }
    </style>
  </defs>
  <g>
    <path class="cls-1" d="m228.94,0c14.55,8.27,29.21,16.35,43.62,24.85,23.86,14.07,47.97,27.71,71.92,41.62,14.74,8.56,29.42,17.29,44.37,25.53,16.5,9.1,32.61,18.92,48.9,28.41,7.94,4.63,11.15,11.72,11.15,20.67-.03,49.63-.02,99.27-.02,148.9,0,25.15-.48,50.31.19,75.45.36,13.63-4.29,22.82-16.5,29.37-18.08,9.7-35.53,20.57-53.33,30.8-15.91,9.15-31.98,18.03-47.91,27.15-15.09,8.63-29.93,17.67-45.13,26.12-17.11,9.51-33.84,19.69-50.69,29.66-2.13,1.26-4.88,1.21-6.57,3.3h-3c0-14.6,0-29.21-.01-43.81,12.8-7.43,25.58-14.89,38.39-22.29,46.38-26.76,92.75-53.53,139.18-80.2,3.86-2.22,5.49-4.78,5.47-9.49-.18-66.12-.2-132.23.01-198.35.02-6.27-2.42-9.63-7.56-12.55-25.16-14.3-50.17-28.84-75.22-43.32-32.39-18.72-64.78-37.46-97.15-56.21-2.23-1.29-4.46-2.25-7.09-1.5,0-12.94,0-25.87-.04-38.81,0-1.84.02-3.65,1.01-5.29,2,0,4,0,6,0Z"/>
    <path class="cls-1" d="m222.94,0c-1,1.64-1.02,3.44-1.01,5.29.03,12.94.03,25.87.04,38.81-.53.39-1.03.83-1.59,1.16-18.76,10.74-37.56,21.39-56.27,32.21-39.58,22.9-79.08,45.94-118.71,68.74-3.92,2.26-5.5,4.61-5.49,9.28.17,65.79.23,131.58-.05,197.36-.03,6.98,1.2,11.77,8.23,14.16,2.62.89,4.93,2.71,7.37,4.12,54.55,31.56,109.1,63.14,163.68,94.65,2.03,1.17,3.94,3.32,6.79,2.22,0,14.6,0,29.21.01,43.81h-7c-5.83-3.4-11.65-6.81-17.49-10.18-34.09-19.68-68.17-39.37-102.27-59.02-27.34-15.75-54.72-31.43-82.07-47.16-6.6-3.8-13.44-7.31-16.11-15.35-.65-1.95-.98-3.82-.98-5.81,0-79.09-.04-158.18.04-237.26,0-8.06,4.8-13.48,11.46-17.33,40.83-23.6,81.67-47.18,122.52-70.74,25.91-14.95,51.86-29.83,77.73-44.85,2.39-1.38,5.56-1.42,7.18-4.11h4Z"/>
    <path class="cls-1" d="m128.97,325.93c-5.82.57-10.54-2.21-14.52-6.15-16.43-16.29-32.8-32.64-49.05-49.11-8.82-8.93-8.72-20.88.07-29.73,16.2-16.29,32.61-32.36,48.67-48.78,10.01-10.24,26.81-7.63,32.9,4.27,3.91,7.63,2.46,17.2-4.49,24.24-10.52,10.66-21.06,21.32-31.82,31.73-2.91,2.81-2.66,4.38.09,7.06,10.74,10.45,21.33,21.05,31.81,31.75,9.59,9.79,8.71,23.32-1.79,31.29-3.47,2.63-7.39,3.67-11.87,3.42Z"/>
    <path class="cls-1" d="m320.41,326c-9.52.07-15.75-4.04-19.02-11.65-3.6-8.4-1.83-16.36,4.64-22.94,10.51-10.67,21.06-21.31,31.81-31.73,2.95-2.86,3.08-4.49.03-7.44-10.76-10.41-21.32-21.04-31.76-31.78-11.18-11.51-7.17-29.4,7.45-33.86,6.57-2,15.77-.24,21.85,6.86,7.77,9.05,16.87,16.96,25.32,25.44,8.66,8.7,17.71,17.07,25.64,26.4,6.2,7.29,4.44,17.86-2.86,25.35-7.3,7.49-14.98,14.6-22.55,21.82-9.82,9.37-19.03,19.38-28.69,28.94-3.43,3.39-7.89,4.82-11.86,4.59Z"/>
    <path class="cls-1" d="m221.93,216.92c6.77-15.01,14.23-29.68,22.11-44.14,1.51-2.77,4.38-4.7,7.05-5.14,8.04-1.33,16.38-2.34,22.73,4.77,5.78,6.47,6.79,13.83,3.55,21.79-3.26,8.02-7.71,15.46-11.58,23.18-12.72,25.41-25.26,50.92-37.89,76.37-.88,1.77-1.97,3.44-2.96,5.15-1.74-1.64-.97-3.77-.97-5.68-.05-23.14-.04-46.28-.03-69.42,0-2.5.24-5.05-2.01-6.88Z"/>
    <path class="cls-1" d="m221.93,216.92c2.25,1.83,2.01,4.39,2.01,6.88,0,23.14-.02,46.28.03,69.42,0,1.9-.76,4.03.97,5.68-5.69,11.65-11.25,23.36-17.12,34.91-4.13,8.13-11.01,12.72-20.15,11.87-7.7-.71-13.61-5.07-16.57-12.57-1.9-4.82-2.11-9.86.05-14.56,4.79-10.41,9.84-20.71,14.95-30.97,11.05-22.17,22.2-44.29,33.33-66.41.74-1.47,1.67-2.84,2.51-4.26Z"/>
  </g>
  <text class="cls-2" transform="translate(13.96 589.32)"><tspan x="0" y="0">GUS</tspan><tspan class="cls-6" x="101.13" y="0">T</tspan><tspan class="cls-4" x="128.42" y="0">A</tspan><tspan class="cls-5" x="159.43" y="0">V</tspan><tspan class="cls-3" x="192.77" y="0">O MOURA</tspan></text>
</svg>